<?xml version="1.0" encoding="UTF-8"?>
<svg id="Layer_1" xmlns="http://www.w3.org/2000/svg" xmlns:xlink="http://www.w3.org/1999/xlink" version="1.1" viewBox="0 0 14 14">
  <!-- Generator: Adobe Illustrator 30.3.0, SVG Export Plug-In . SVG Version: 2.1.3 Build 182)  -->
  <defs>
    <style>
      .st0 {
        fill: none;
      }

      .st1 {
        fill: #629d69;
        fill-rule: evenodd;
      }

      .st2 {
        clip-path: url(#clippath);
      }
    </style>
    <clipPath id="clippath">
      <rect class="st0" width="14" height="14"/>
    </clipPath>
  </defs>
  <g class="st2">
    <path class="st1" d="M0,10.22V1.22C0,.79.27.4.69.3,2.6-.15,4.84-.02,6.42.74v.03s0,6.63,0,6.63c-.55.8-.76,1.76-.76,2.69,0,.26.02.51.05.77-1.51-.51-3.4-.55-5.04-.15-.33.08-.67-.16-.67-.5M13.42,6.83c.23.23.42.47.58.74V1.22c0-.43-.27-.82-.69-.92-1.87-.45-4.07-.33-5.64.4,0,.02,0,.05,0,.07v5.45c.76-.45,1.63-.63,2.49-.63,1.17,0,2.36.33,3.26,1.24M8.84,8.78c-.25.25-.43.66-.43,1.32s.18,1.07.43,1.32c.25.25.66.43,1.32.43.04,0,.08,0,.12,0,.59-.02.97-.2,1.2-.43.03-.03.06-.06.09-.1.2-.25.34-.64.34-1.22,0-.66-.18-1.07-.43-1.32s-.66-.43-1.32-.43-1.07.18-1.32.43ZM8.01,7.51c.58-.45,1.32-.66,2.14-.66.06,0,.12,0,.18,0,.87.03,1.64.3,2.2.87.08.08.15.16.21.24.45.58.66,1.32.66,2.14,0,.66-.13,1.26-.41,1.78l.74.74c.07.07.13.15.17.24s.06.19.06.29c0,.1-.02.2-.05.29-.04.09-.09.18-.17.25-.07.07-.16.13-.25.17-.09.04-.19.06-.29.05-.1,0-.2-.02-.29-.06s-.17-.1-.24-.17l-.74-.74c-.51.28-1.12.41-1.78.41-.94,0-1.78-.27-2.38-.87-.61-.6-.87-1.44-.87-2.38s.26-1.78.87-2.38c.08-.08.15-.15.24-.21Z"/>
  </g>
</svg>