<?xml version="1.0" encoding="UTF-8"?>
<svg id="Layer_1" xmlns="http://www.w3.org/2000/svg" version="1.1" viewBox="0 0 19.16 24.22">
  <!-- Generator: Adobe Illustrator 30.3.0, SVG Export Plug-In . SVG Version: 2.1.3 Build 182)  -->
  <defs>
    <style>
      .st0 {
        fill: #49a4ff;
      }
    </style>
  </defs>
  <path class="st0" d="M6.38,6.65c1.59,0,3.12.63,4.24,1.76,1.13,1.13,1.76,2.65,1.76,4.24,0,2.22-1.21,4.16-3,5.2v1.8c0,.27-.11.52-.29.71s-.44.29-.71.29h-4c-.27,0-.52-.11-.71-.29-.19-.19-.29-.44-.29-.71v-1.8c-1.79-1.04-3-2.98-3-5.2,0-1.59.63-3.12,1.76-4.24s2.65-1.76,4.24-1.76ZM8.38,21.65v1c0,.27-.11.52-.29.71s-.44.29-.71.29h-2c-.27,0-.52-.11-.71-.29-.19-.19-.29-.44-.29-.71v-1h4ZM12.61,3.42l-.45.89c-.25.49-.85.69-1.34.44h0c-.49-.25-.69-.85-.44-1.34l.45-.89c.25-.49.85-.69,1.34-.44h0c.49.25.69.85.44,1.34ZM5.04,2.07l.31.96c.17.52-.12,1.1-.64,1.27h0c-.52.17-1.09-.11-1.26-.64l-.32-.96c-.17-.52.11-1.09.64-1.26h0c.53-.18,1.1.11,1.27.64v-.02ZM15.46,8.13l.95-.31c.52-.17,1.09.11,1.27.64h0c.17.54-.12,1.11-.64,1.28l-.95.31c-.52.17-1.09-.11-1.26-.64h0c-.17-.53.12-1.1.64-1.27v-.02ZM18.97,8.98c-.14.27-.37.46-.66.57l-3.2,1.05c-.28.08-.57.05-.84-.09s-.45-.36-.55-.65c-.09-.27-.08-.58.06-.85s.35-.46.62-.57l3.2-1.05c.28-.09.59-.07.86.07s.46.37.57.66c.09.28.07.59-.07.86h0s0,0,0,0ZM5.91,4.16c.08.28.06.58-.08.84s-.36.45-.65.56c-.28.09-.59.07-.85-.06s-.46-.35-.57-.63l-1.05-3.2c-.05-.14-.08-.29-.07-.44,0-.14.05-.29.11-.44.07-.13.15-.26.27-.36s.26-.17.39-.22.3-.06.44-.06.3.05.43.13c.13.07.25.16.35.29.09.11.16.25.2.39l1.05,3.2h0s.02,0,.02,0ZM11.19,6.03c-.28.09-.59.07-.86-.07s-.46-.37-.57-.66c-.09-.28-.07-.59.07-.86l1.51-3c.14-.27.37-.46.66-.57.28-.09.59-.07.86.07s.46.37.57.66c.09.28.07.59-.07.86l-1.52,3.01c-.14.27-.37.46-.66.57h0Z"/>
</svg>